<mxfile host="app.diagrams.net" modified="2022-09-06T07:18:52.779Z" agent="5.0 (Windows NT 10.0; Win64; x64) AppleWebKit/537.36 (KHTML, like Gecko) Chrome/104.0.0.0 Safari/537.36" etag="zdQBS1Tl95n-p-St5Hif" version="20.2.8" type="github">
  <diagram name="Page-1" id="822b0af5-4adb-64df-f703-e8dfc1f81529">
    <mxGraphModel dx="782" dy="706" grid="1" gridSize="10" guides="1" tooltips="1" connect="1" arrows="1" fold="1" page="1" pageScale="1" pageWidth="1100" pageHeight="850" math="0" shadow="0">
      <root>
        <mxCell id="0" />
        <mxCell id="1" parent="0" />
        <mxCell id="AMBbPd0Ayf1UaFMT2O1J-6" style="edgeStyle=orthogonalEdgeStyle;rounded=1;orthogonalLoop=1;jettySize=auto;html=1;entryX=0;entryY=0.5;entryDx=0;entryDy=0;" edge="1" parent="1" source="BJlhxufD29bv75l0aGjO-1" target="BJlhxufD29bv75l0aGjO-4">
          <mxGeometry relative="1" as="geometry" />
        </mxCell>
        <mxCell id="AMBbPd0Ayf1UaFMT2O1J-7" style="edgeStyle=orthogonalEdgeStyle;rounded=1;orthogonalLoop=1;jettySize=auto;html=1;entryX=0;entryY=0.5;entryDx=0;entryDy=0;" edge="1" parent="1" source="BJlhxufD29bv75l0aGjO-1" target="AMBbPd0Ayf1UaFMT2O1J-2">
          <mxGeometry relative="1" as="geometry" />
        </mxCell>
        <mxCell id="AMBbPd0Ayf1UaFMT2O1J-8" style="edgeStyle=orthogonalEdgeStyle;rounded=1;orthogonalLoop=1;jettySize=auto;html=1;entryX=0;entryY=0.5;entryDx=0;entryDy=0;" edge="1" parent="1" source="BJlhxufD29bv75l0aGjO-1" target="AMBbPd0Ayf1UaFMT2O1J-3">
          <mxGeometry relative="1" as="geometry" />
        </mxCell>
        <mxCell id="AMBbPd0Ayf1UaFMT2O1J-9" style="edgeStyle=orthogonalEdgeStyle;rounded=1;orthogonalLoop=1;jettySize=auto;html=1;entryX=0;entryY=0.5;entryDx=0;entryDy=0;" edge="1" parent="1" source="BJlhxufD29bv75l0aGjO-1" target="AMBbPd0Ayf1UaFMT2O1J-4">
          <mxGeometry relative="1" as="geometry" />
        </mxCell>
        <mxCell id="AMBbPd0Ayf1UaFMT2O1J-10" style="edgeStyle=orthogonalEdgeStyle;rounded=1;orthogonalLoop=1;jettySize=auto;html=1;entryX=0;entryY=0.5;entryDx=0;entryDy=0;" edge="1" parent="1" source="BJlhxufD29bv75l0aGjO-1" target="AMBbPd0Ayf1UaFMT2O1J-5">
          <mxGeometry relative="1" as="geometry" />
        </mxCell>
        <mxCell id="BJlhxufD29bv75l0aGjO-1" value="Loadbalancer with EIP" style="rounded=1;whiteSpace=wrap;html=1;" parent="1" vertex="1">
          <mxGeometry x="160" y="200" width="120" height="40" as="geometry" />
        </mxCell>
        <mxCell id="BJlhxufD29bv75l0aGjO-3" style="edgeStyle=orthogonalEdgeStyle;rounded=1;orthogonalLoop=1;jettySize=auto;html=1;" parent="1" source="BJlhxufD29bv75l0aGjO-2" target="BJlhxufD29bv75l0aGjO-1" edge="1">
          <mxGeometry relative="1" as="geometry" />
        </mxCell>
        <mxCell id="BJlhxufD29bv75l0aGjO-2" value="" style="ellipse;shape=cloud;whiteSpace=wrap;html=1;rounded=1;" parent="1" vertex="1">
          <mxGeometry x="90" y="30" width="120" height="80" as="geometry" />
        </mxCell>
        <mxCell id="BJlhxufD29bv75l0aGjO-4" value="Files" style="rounded=1;whiteSpace=wrap;html=1;" parent="1" vertex="1">
          <mxGeometry x="400" y="160" width="120" height="40" as="geometry" />
        </mxCell>
        <mxCell id="AMBbPd0Ayf1UaFMT2O1J-2" value="Office" style="rounded=1;whiteSpace=wrap;html=1;" vertex="1" parent="1">
          <mxGeometry x="400" y="240" width="120" height="40" as="geometry" />
        </mxCell>
        <mxCell id="AMBbPd0Ayf1UaFMT2O1J-3" value="Chat" style="rounded=1;whiteSpace=wrap;html=1;" vertex="1" parent="1">
          <mxGeometry x="400" y="320" width="120" height="40" as="geometry" />
        </mxCell>
        <mxCell id="AMBbPd0Ayf1UaFMT2O1J-4" value="Admin API" style="rounded=1;whiteSpace=wrap;html=1;" vertex="1" parent="1">
          <mxGeometry x="400" y="400" width="120" height="40" as="geometry" />
        </mxCell>
        <mxCell id="AMBbPd0Ayf1UaFMT2O1J-5" value="Jitsi" style="rounded=1;whiteSpace=wrap;html=1;" vertex="1" parent="1">
          <mxGeometry x="400" y="480" width="120" height="40" as="geometry" />
        </mxCell>
      </root>
    </mxGraphModel>
  </diagram>
</mxfile>
